<svg xmlns="http://www.w3.org/2000/svg" viewBox="0 0 153 153"><defs><style>.cls-1{stroke:#fff;stroke-miterlimit:10;stroke-width:3px;opacity:0.13;}.cls-2{fill:#fff;}</style></defs><g id="Camada_2" data-name="Camada 2"><g id="Camada_1-2" data-name="Camada 1"><rect class="cls-1" x="1.5" y="1.5" width="150" height="150" rx="23"/><g id="Camada_2-2" data-name="Camada 2"><g id="Camada_1-2-2" data-name="Camada 1-2"><path class="cls-2" d="M63.52,76.9v48.33a1.27,1.27,0,0,0,1.27,1.27H82.74A1.27,1.27,0,0,0,84,125.23V76.11H97A1.3,1.3,0,0,0,98.3,75l1.24-14.8a1.27,1.27,0,0,0-1.18-1.36H84V48.28a4.44,4.44,0,0,1,4.45-4.44h10a1.27,1.27,0,0,0,1.26-1.27V27.77a1.26,1.26,0,0,0-1.25-1.27H81.51a18,18,0,0,0-18,18V58.78h-9A1.26,1.26,0,0,0,53.3,60h0V74.83a1.26,1.26,0,0,0,1.26,1.26h9Z"/></g></g></g></g></svg>