<?xml version="1.0" encoding="UTF-8"?>
<svg id="Camada_2" data-name="Camada 2" xmlns="http://www.w3.org/2000/svg" viewBox="0 0 460.64 477.48">
  <defs>
    <style>
      .cls-1 {
        fill: #fff;
      }
    </style>
  </defs>
  <g id="Camada_1-2" data-name="Camada 1">
    <path class="cls-1" d="m0,141.84c0-39.06,14.6-72.25,43.4-100.12C72.4,13.84,107.32,0,148.16,0h312.49v126.48H148.16c-4.54,0-8.48,1.52-11.64,4.55-2.96,2.84-4.54,6.45-4.73,10.62H0v.19Z"/>
    <path class="cls-1" d="m0,159.48v-.57h131.58v.57c0,4.36,1.58,8.15,4.73,11.19,3.16,3.03,7.1,4.55,11.64,4.55h164.53c40.84,0,75.75,13.84,104.56,41.72,29.2,28.07,43.8,62.01,43.4,101.64h-131.59v-1.14c0-4.36-1.58-8.15-4.73-11.19-3.16-3.03-7.1-4.55-11.64-4.55h-164.33c-40.84,0-75.75-13.84-104.56-41.72C18.74,236.28,4.54,208.4.99,176.36c-.59-5.5-.99-11.19-.99-16.88Z"/>
    <path class="cls-1" d="m0,477.29v-126.48h312.49c4.54,0,8.48-1.52,11.64-4.55,2.96-2.84,4.54-6.26,4.73-10.05h131.59c0,5.12-.4,10.24-.79,15.17-3.55,32.24-17.75,60.49-42.61,84.38-29,27.87-63.72,41.72-104.56,41.72H0v-.19Z"/>
  </g>
</svg>