<svg xmlns="http://www.w3.org/2000/svg" viewBox="0 0 153 153"><defs><style>.cls-1{stroke:#fff;stroke-miterlimit:10;stroke-width:3px;opacity:0.13;}.cls-2{fill:#fff;}</style></defs><g id="Camada_2" data-name="Camada 2"><g id="Camada_1-2" data-name="Camada 1"><rect class="cls-1" x="1.5" y="1.5" width="150" height="150" rx="23"/><g id="Camada_2-2" data-name="Camada 2"><g id="Camada_1-2-2" data-name="Camada 1-2"><path class="cls-2" d="M108.77,49.79A5.8,5.8,0,1,1,103,44a5.8,5.8,0,0,1,5.79,5.79Zm-7.21,26A24.38,24.38,0,1,1,77.19,51.45,24.36,24.36,0,0,1,101.56,75.82Zm-8.76,0A15.62,15.62,0,1,0,77.19,91.43,15.61,15.61,0,0,0,92.8,75.82Zm33.7-19.57A29.73,29.73,0,0,0,96.8,26.5H56.22A29.72,29.72,0,0,0,26.5,56.22V96.77A29.73,29.73,0,0,0,56.22,126.5H96.77A29.73,29.73,0,0,0,126.5,96.77Zm-9.76,40.14a20.43,20.43,0,0,1-20.42,20.42H56.64A20.43,20.43,0,0,1,36.22,96.39V56.66A20.43,20.43,0,0,1,56.64,36.25H96.31a20.43,20.43,0,0,1,20.42,20.41Z"/></g></g></g></g></svg>