<svg xmlns="http://www.w3.org/2000/svg" viewBox="0 0 153 153"><defs><style>.cls-1{stroke:#fff;stroke-miterlimit:10;stroke-width:3px;opacity:0.13;}.cls-2{fill:#fff;}</style></defs><g id="Camada_2" data-name="Camada 2"><g id="Camada_1-2" data-name="Camada 1"><rect class="cls-1" x="1.5" y="1.5" width="150" height="150" rx="23"/><g id="Camada_2-2" data-name="Camada 2"><g id="Camada_1-2-2" data-name="Camada 1-2"><path class="cls-2" d="M125.93,45.21a41.44,41.44,0,0,1-10.19,2.87c1.64-.28,4-3.21,4.91-4.4a19,19,0,0,0,3.34-6.1.52.52,0,0,0,0-.55.58.58,0,0,0-.54,0,52.24,52.24,0,0,1-11.94,4.58.84.84,0,0,1-.83-.2,7.66,7.66,0,0,0-1-1.09,20.15,20.15,0,0,0-5.81-3.5,19.92,19.92,0,0,0-8.9-1.43,20.9,20.9,0,0,0-8.42,2.38,21.56,21.56,0,0,0-6.8,5.57,20.93,20.93,0,0,0-4.06,8.17,21.85,21.85,0,0,0-.21,8.6c0,.49,0,.54-.41.49-16.4-2.48-30-8.35-41.08-21-.49-.55-.75-.55-1.14.05C28,47,30.33,58.66,36.35,64.38a29.89,29.89,0,0,0,2.54,2.22A20.48,20.48,0,0,1,31,64.38c-.49-.31-.73-.13-.78.41a11,11,0,0,0,.11,2.36A21.08,21.08,0,0,0,43.26,84a12.39,12.39,0,0,0,2.64.81c-1.58.36-3.23.6-7.78.23-.55-.1-.78.19-.55.72C41,95.07,48.38,97.84,53.93,99.42c.74.12,1.47.12,2.22.3a.44.44,0,0,1-.13.14c-1.84,2.79-8.18,4.9-11.14,5.92A39.51,39.51,0,0,1,27.94,108c-.9-.13-1.09-.13-1.34,0s0,.37.26.62c1.16.78,2.33,1.45,3.52,2.1a56.23,56.23,0,0,0,11.32,4.53c20.34,5.61,43.27,1.5,58.56-13.72,12-11.93,16.16-28.39,16.16-44.88,0-.65.75-1,1.22-1.34A40.33,40.33,0,0,0,125.78,47a3.36,3.36,0,0,0,.72-1.58V45.3c0-.26-.18-.18-.59,0Z"/></g></g></g></g></svg>