<svg xmlns="http://www.w3.org/2000/svg" viewBox="0 0 153 153"><defs><style>.cls-1{stroke:#fff;stroke-miterlimit:10;stroke-width:3px;opacity:0.13;}.cls-2{fill:#fff;}</style></defs><g id="Camada_2" data-name="Camada 2"><g id="Camada_1-2" data-name="Camada 1"><rect class="cls-1" x="1.5" y="1.5" width="150" height="150" rx="23"/><g id="Camada_2-2" data-name="Camada 2"><g id="Camada_1-2-2" data-name="Camada 1-2"><path class="cls-2" d="M95.38,82.79c-2-1.22-4.68-2.58-7.08-1.58-1.84.75-3,3.64-4.21,5.1a1.76,1.76,0,0,1-2.29.49,32.09,32.09,0,0,1-16-13.75A1.93,1.93,0,0,1,66,70.37c1.14-1.36,2.6-2.89,2.91-4.74s-.55-4-1.3-5.61c-1-2.08-2.06-5.05-4.14-6.22-1.92-1.1-4.45-.47-6.14.91A12.42,12.42,0,0,0,53,64.59a13.38,13.38,0,0,0,.39,3.15,25.46,25.46,0,0,0,3,6.93,54.14,54.14,0,0,0,3.15,4.79A48,48,0,0,0,73.24,92.12a39,39,0,0,0,8.5,4c3.34,1.1,6.3,2.24,9.88,1.56,3.78-.7,7.47-3,9-6.66a5.66,5.66,0,0,0,.42-3.42c-.52-2.34-3.7-3.75-5.59-4.87Z"/><path class="cls-2" d="M77,26.34A49.47,49.47,0,0,0,33.68,99.83L26.5,126.66l27-7.22A49.51,49.51,0,1,0,77,26.37Zm0,89.75a40,40,0,0,1-20.51-5.68l-1.69-1-15.07,4,4-15-1-1.72A40.09,40.09,0,1,1,77,116.09Z"/></g></g></g></g></svg>